<svg xmlns="http://www.w3.org/2000/svg" viewBox="0 0 497 460"><defs><style>.cls-1{fill:#ff0090;}.cls-2{fill:#e20090;}.cls-3{fill:#ad008f;}.cls-4{fill:#7c0094;}</style></defs><g id="图层_2" data-name="图层 2"><g id="图层_4" data-name="图层 4"><path class="cls-1" d="M497,230a215.17,215.17,0,0,1-1.28,23.52l-.22,0c-5.46,13.63-16.66,35-39,49-46.1,28.91-107.74,6.5-141-19-66-50.58-84-162.13-34-223,20.87-25.4,48.82-36.17,66-41l.18-.45C435.56,54.5,497,135.61,497,230Z"/><path class="cls-2" d="M495.72,253.52a214.21,214.21,0,0,1-9.29,43.06C427,361.08,337.82,385.51,260.5,358.5c-101-35.29-128.51-139.77-132-154-25-101.76,31.81-181,40-192l-.09-.29a268.18,268.18,0,0,1,179.27,6.84l-.18.45c-17.18,4.83-45.13,15.6-66,41-50,60.87-32,172.42,34,223,33.26,25.5,94.9,47.91,141,19,22.34-14,33.54-35.37,39-49Z"/><path class="cls-3" d="M486.43,296.58a224.24,224.24,0,0,1-44.73,78.09l-.2-.17c-12.36,10-91.67,71.74-202,54-105.72-17-160.93-94.3-171-109-59-86.16-44.2-176.61-41-194l-.31-.21C56.4,72.51,107,31.55,168.41,12.21l.09.29c-8.19,11-64.95,90.24-40,192,3.49,14.23,31,118.71,132,154C337.82,385.51,427,361.08,486.43,296.58Z"/><path class="cls-4" d="M441.7,374.67C396.14,426.72,326.52,460,248.5,460,111.26,460,0,357,0,230A215.32,215.32,0,0,1,27.19,125.29l.31.21c-3.2,17.39-18,107.84,41,194,10.07,14.7,65.28,92,171,109,110.33,17.74,189.64-44,202-54Z"/></g></g></svg>